<?xml version="1.0" encoding="iso-8859-1"?>
<!-- Generator: Adobe Illustrator 19.0.0, SVG Export Plug-In . SVG Version: 6.00 Build 0)  -->
<svg version="1.1" id="Layer_1" xmlns="http://www.w3.org/2000/svg" xmlns:xlink="http://www.w3.org/1999/xlink" x="0px" y="0px"
	 viewBox="0 0 512 512" style="enable-background:new 0 0 512 512;" xml:space="preserve">
<polygon style="fill:#C6C5CB;" points="264.435,342.407 325.245,403.217 203.615,403.217 253.385,353.457 "/>
<polygon style="fill:#898890;" points="264.435,342.407 325.245,403.217 253.385,403.217 253.385,331.357 "/>
<path style="fill:#C6C5CB;" d="M504.495,52.737v350.48h-107.6c-0.06-0.06-0.12-0.13-0.18-0.19l-143.33-143.33l-45.11-45.11
	c6.67-19.15,2.36-41.28-12.94-56.58c-16.01-16.01-39.48-19.99-59.21-11.95l35.58,35.58l-6.38,23.54l-23.54,6.38l-35.58-35.58
	c-8.03,19.72-4.05,43.2,11.96,59.2c14.37,14.38,34.76,19.04,53.06,14.03l46.09,46.09l-107.92,107.92H7.495V52.737H504.495z"/>
<g>
	<path style="fill:#898890;" d="M504.495,52.737v350.48h-107.6c-0.06-0.06-0.12-0.13-0.18-0.19l-143.33-143.33V52.737H504.495z"/>
	<rect x="7.495" y="52.737" style="fill:#898890;" width="497" height="66.06"/>
</g>
<rect x="253.38" y="52.737" style="fill:#57565C;" width="251.11" height="66.06"/>
<g>
	<circle style="fill:#47F8FE;" cx="45.917" cy="86.32" r="12.445"/>
	<circle style="fill:#47F8FE;" cx="103.42" cy="86.32" r="12.445"/>
	<circle style="fill:#47F8FE;" cx="160.92" cy="86.32" r="12.445"/>
	<path style="fill:#47F8FE;" d="M455.448,98.761H326.851c-6.873,0-12.445-5.572-12.445-12.445l0,0
		c0-6.873,5.572-12.445,12.445-12.445h128.596c4.938,0,9.204,2.876,11.215,7.043c0.788,1.634,1.23,3.466,1.23,5.402l0,0
		C467.893,93.189,462.321,98.761,455.448,98.761z"/>
</g>
<polygon style="fill:#FED322;" points="264.435,342.407 150.685,456.157 126.615,432.087 103.575,409.047 217.315,295.297 
	240.365,318.337 "/>
<rect x="115.086" y="370.229" transform="matrix(-0.7071 0.7071 -0.7071 -0.7071 607.6001 522.8214)" style="fill:#FF9911;" width="160.868" height="34.04"/>
<rect x="371.056" y="155.693" transform="matrix(-0.7071 -0.7071 0.7071 -0.7071 538.0944 568.6846)" style="fill:#57565C;" width="31.54" height="34.412"/>
<path style="fill:#FE0B37;" d="M404.595,421.847c0,5.93-2.04,11.8-6.13,16.46c-0.35,0.41-0.72,0.8-1.11,1.19
	c-9.9,9.9-26.23,9.61-36.48-0.64l-189.65-189.65c-18.3,5.01-38.69,0.35-53.06-14.03c-16.01-16-19.99-39.48-11.96-59.2l35.58,35.58
	l23.54-6.38l6.38-23.54l-35.58-35.58c19.73-8.04,43.2-4.06,59.21,11.95c15.3,15.3,19.61,37.43,12.94,56.58l188.44,188.44
	c4.4,4.39,6.96,9.91,7.67,15.55C404.525,419.667,404.595,420.757,404.595,421.847z"/>
<path style="fill:#A50020;" d="M398.465,438.307c-0.35,0.41-0.72,0.8-1.11,1.19c-9.9,9.9-26.23,9.61-36.48-0.64l-189.65-189.65
	c-18.3,5.01-38.69,0.35-53.06-14.03c-16.01-16-19.99-39.48-11.96-59.2l35.58,35.58l23.54-6.38L398.465,438.307z"/>
<g>
	<rect x="472" y="244.69" style="fill:#020202;" width="15" height="15.186"/>
	<polygon style="fill:#020202;" points="487,276.237 472,276.237 472,370.723 454.019,370.723 454.019,385.723 487,385.723 	"/>
	<polygon style="fill:#020202;" points="81.939,385.723 81.939,370.723 40,370.723 40,313.035 25,313.035 25,385.723 	"/>
	<path style="fill:#020202;" d="M0,45.236v81.057v284.43h94.644l56.041,56.041l56.041-56.041H322.14l33.438,33.438
		c6.339,6.339,14.699,9.916,23.542,10.071c0.201,0.004,0.401,0.006,0.603,0.006c8.715-0.001,16.841-3.338,22.939-9.436
		c7.108-7.109,10.45-17.009,9.169-27.16c-0.298-2.359-0.851-4.679-1.637-6.919H512v-284.43V45.236H0z M15,60.236h482v51.057H15
		V60.236z M114.177,409.043l103.14-103.141l36.507,36.507l-51.068,51.069l-52.072,52.073L114.177,409.043z M221.725,395.723
		l42.706-42.706l42.706,42.706H221.725z M392.052,434.195c-3.334,3.336-7.837,5.156-12.67,5.039
		c-4.935-0.087-9.623-2.104-13.198-5.681L173.446,240.817l-4.204,1.152c-1.019,0.28-2.043,0.524-3.07,0.733
		c-11.299,2.298-22.979,0.343-32.816-5.273c-3.577-2.042-6.91-4.569-9.893-7.551c-7.243-7.242-11.756-16.409-13.254-26.078
		c-0.681-4.395-0.739-8.893-0.146-13.362l29.492,29.493l0,0l0,0l31.882-8.645l8.646-31.883l-29.493-29.492
		c0.65-0.086,1.301-0.143,1.952-0.202c1.139-0.103,2.279-0.179,3.417-0.198c12.519-0.214,24.853,4.582,34.071,13.8
		c0.873,0.873,1.703,1.78,2.498,2.712c10.672,12.525,14.117,30.069,8.77,45.782c-0.92,1.926-6.004,12.171-13.421,19.587L198.484,242
		c4.819-4.819,8.748-10.412,11.577-15.022l61.344,61.344l0,0c0.001,0.001,0.002,0.002,0.003,0.003l119.897,119.897
		c0.068,0.075,0.137,0.149,0.209,0.223l0.118,0.122c2.952,3.047,4.793,6.823,5.314,10.953
		C397.643,425.039,395.859,430.389,392.052,434.195z M497,395.723h-96.98L287.317,283.02l87.342-87.344l11.15,11.15l34.939-34.939
		l-32.908-32.909l-34.939,34.939l11.152,11.152c-28.333,28.344-72.301,72.323-87.338,87.349l-59.955-59.955
		c5.553-21.158-0.527-44.163-16.122-59.759c-0.702-0.702-1.422-1.377-2.151-2.04c-1.569-1.428-3.194-2.772-4.876-4.016
		c-17.241-12.756-40.014-15.808-60.311-7.537l-10.46,4.262l40.492,40.491l-4.121,15.195l-15.194,4.12l-40.493-40.492l-4.262,10.46
		c-0.295,0.725-0.576,1.453-0.843,2.184c-8.263,22.656-2.719,47.998,14.437,65.154c0.918,0.918,1.86,1.802,2.826,2.654
		c0.87,0.767,1.762,1.503,2.669,2.216c0.266,0.209,0.535,0.415,0.804,0.619c1.347,1.024,2.728,1.993,4.146,2.898
		c0.367,0.234,0.738,0.459,1.109,0.685c0.183,0.112,0.364,0.228,0.549,0.338c0.123,0.073,0.248,0.141,0.372,0.214
		c0.664,0.388,1.334,0.762,2.011,1.125c12.577,6.747,27.276,9.053,41.532,6.226l37.837,37.837L106.284,395.723H15v-269.43h482
		V395.723z M374.114,173.917l13.727-13.727l11.695,11.696l-13.727,13.727L374.114,173.917z"/>
	<path style="fill:#020202;" d="M45.917,66.371c-10.998,0-19.945,8.947-19.945,19.944c0,10.998,8.947,19.945,19.945,19.945
		s19.945-8.947,19.945-19.945C65.862,75.318,56.915,66.371,45.917,66.371z M45.917,91.261c-2.727,0-4.945-2.219-4.945-4.945
		c0-2.727,2.218-4.944,4.945-4.944s4.945,2.218,4.945,4.944S48.644,91.261,45.917,91.261z"/>
	<path style="fill:#020202;" d="M103.418,66.371c-10.998,0-19.945,8.947-19.945,19.944c0,10.998,8.947,19.945,19.945,19.945
		s19.945-8.947,19.945-19.945C123.364,75.318,114.416,66.371,103.418,66.371z M103.418,91.261c-2.727,0-4.945-2.219-4.945-4.945
		c0-2.727,2.218-4.944,4.945-4.944s4.945,2.218,4.945,4.944C108.364,89.042,106.146,91.261,103.418,91.261z"/>
	<path style="fill:#020202;" d="M160.919,66.371c-10.998,0-19.945,8.947-19.945,19.944c0,10.998,8.947,19.945,19.945,19.945
		s19.945-8.947,19.945-19.945C180.865,75.318,171.917,66.371,160.919,66.371z M160.919,91.261c-2.727,0-4.945-2.219-4.945-4.945
		c0-2.727,2.218-4.944,4.945-4.944s4.945,2.218,4.945,4.944C165.865,89.042,163.646,91.261,160.919,91.261z"/>
	<path style="fill:#020202;" d="M455.447,66.371H326.852c-10.998,0-19.945,8.947-19.945,19.944c0,10.998,8.947,19.945,19.945,19.945
		h128.596c10.998,0,19.945-8.947,19.945-19.945c0-3.032-0.665-5.947-1.976-8.66C470.11,70.801,463.057,66.371,455.447,66.371z
		 M455.447,91.261H326.852c-2.727,0-4.945-2.219-4.945-4.945c0-2.727,2.219-4.944,4.945-4.944h128.596
		c1.917,0,3.626,1.073,4.461,2.805c0.321,0.665,0.484,1.385,0.484,2.14C460.393,89.042,458.174,91.261,455.447,91.261z"/>
	
		<rect x="190.508" y="366.809" transform="matrix(-0.707 -0.7072 0.7072 -0.707 73.8949 777.5145)" style="fill:#020202;" width="15" height="13.283"/>
	<polygon style="fill:#020202;" points="150.684,410.195 145.72,405.23 135.114,415.838 150.684,431.408 184.876,397.217 
		174.27,386.609 	"/>
</g>
<g>
</g>
<g>
</g>
<g>
</g>
<g>
</g>
<g>
</g>
<g>
</g>
<g>
</g>
<g>
</g>
<g>
</g>
<g>
</g>
<g>
</g>
<g>
</g>
<g>
</g>
<g>
</g>
<g>
</g>
</svg>
